<?xml version="1.0" encoding="UTF-8"?>
<svg version="1.1" xmlns="http://www.w3.org/2000/svg" width="304" height="393">
<path d="M0 0 C52.14 0 104.28 0 158 0 C158.33 5.94 158.66 11.88 159 18 C157.453125 17.938125 155.90625 17.87625 154.3125 17.8125 C141.99328603 17.82714829 123.77919021 18.1089203 114.15234375 26.63671875 C108.86549501 32.39850899 107.6764881 38.11126553 106.9375 45.6875 C106.12185864 53.75628272 106.12185864 53.75628272 105 56 C105.84820312 56.09796875 106.69640625 56.1959375 107.5703125 56.296875 C127.80865455 58.87670761 149.68123612 65.49937498 163 82 C174.42356467 98.41131826 175.80903072 117.12031933 172.75390625 136.4765625 C170.80361595 145.59139072 167.24163119 154.91638924 161 162 C160.34 162 159.68 162 159 162 C158.66355469 162.84304687 158.66355469 162.84304687 158.3203125 163.703125 C150.06404706 178.06609565 128.51096438 184.52300678 113.984375 189.75 C113.31116211 189.99234375 112.63794922 190.2346875 111.94433594 190.484375 C110 191 110 191 106 191 C106 191.66 106 192.32 106 193 C106.58394531 193.268125 107.16789063 193.53625 107.76953125 193.8125 C121.07064937 200.89400597 130.32346324 216.12334136 139 228 C139.78963135 229.07628662 139.78963135 229.07628662 140.59521484 230.17431641 C147.27723165 239.29318439 153.76290207 248.52782777 160.1159668 257.87841797 C165.44133496 265.69495624 170.95319806 273.36810869 176.54248047 280.99755859 C177.88950905 282.84819987 179.21544195 284.71186479 180.53515625 286.58203125 C186.89225426 295.42526708 193.08092787 301.74139741 204 304 C209.6451589 304.85520544 215.31865377 305.44556323 221 306 C221 310.62 221 315.24 221 320 C212.25490036 320.22634949 203.5117593 320.40961122 194.76438808 320.51812172 C190.70208476 320.57021505 186.6418964 320.64079916 182.58081055 320.75439453 C178.65783671 320.86343401 174.73688981 320.92291528 170.81251717 320.94877243 C169.31916446 320.96718494 167.82591723 321.00314705 166.33343315 321.05730057 C154.72298134 321.46163923 154.72298134 321.46163923 150.71913147 318.06509399 C148.87269739 315.46754568 147.43908116 312.84135851 146 310 C144.91087235 308.32498326 143.80080291 306.66339599 142.67016602 305.01611328 C141.52996116 303.28513499 140.39125844 301.55316649 139.25390625 299.8203125 C138.63909897 298.88629608 138.02429169 297.95227966 137.39085388 296.98995972 C135.44670075 294.03587072 133.50451115 291.08049747 131.5625 288.125 C119.18758442 268.77928021 119.18758442 268.77928021 106 250 C105.94878145 257.2733251 105.91405158 264.54660273 105.89013672 271.82006836 C105.88015412 274.288185 105.86656332 276.75629004 105.84912109 279.22436523 C104.46368751 305.98950941 104.46368751 305.98950941 114.375 329.875 C123.35737908 337.14644973 134.4900013 337.37743783 145.5625 338.125 C147.36170898 338.25455078 147.36170898 338.25455078 149.19726562 338.38671875 C152.13108863 338.59711243 155.06549202 338.79938636 158 339 C158 344.94 158 350.88 158 357 C105.86 357 53.72 357 0 357 C0 351.06 0 345.12 0 339 C1.73765625 338.89042969 3.4753125 338.78085937 5.265625 338.66796875 C7.59378876 338.50837688 9.92191169 338.3481887 12.25 338.1875 C13.38953125 338.11724609 14.5290625 338.04699219 15.703125 337.97460938 C26.87868262 337.18089079 38.37682908 336.24796769 46.25 327.5 C48.19997786 324.84429205 48.19997786 324.84429205 50 321 C23.27 320.67 -3.46 320.34 -31 320 C-31 315.38 -31 310.76 -31 306 C-29.6490625 305.89042969 -28.298125 305.78085937 -26.90625 305.66796875 C-25.10411414 305.50840464 -23.30203358 305.34821507 -21.5 305.1875 C-20.613125 305.11724609 -19.72625 305.04699219 -18.8125 304.97460938 C-12.14041677 304.36136643 -5.66976069 303.52924697 -0.625 298.75 C4.13664762 290.6918271 4.15352574 280.83125213 4.13371277 271.69593811 C4.1371111 270.51892378 4.1371111 270.51892378 4.14057809 269.31813139 C4.14685571 266.71605981 4.14609279 264.11404115 4.14526367 261.51196289 C4.148259 259.63525832 4.15166239 257.75855436 4.15544128 255.8818512 C4.16424585 250.80335897 4.16661786 245.7248836 4.16725707 240.64638448 C4.1679694 237.46976946 4.17010714 234.29315869 4.17275429 231.11654472 C4.18199482 220.02406417 4.18609065 208.9315956 4.18530273 197.83911133 C4.18470176 187.51502401 4.19526081 177.19098891 4.2110464 166.86691481 C4.22413694 157.98766716 4.22948602 149.10843655 4.22884732 140.22917932 C4.22859286 134.93271097 4.23141612 129.6362891 4.24202538 124.3398304 C4.25173226 119.3583623 4.25176779 114.37698489 4.24450874 109.39551353 C4.24346624 107.57267753 4.24580585 105.7498358 4.2518692 103.92700958 C4.80534995 88.95475058 4.80534995 88.95475058 0.25 75.0625 C-7.95536263 67.54091759 -20.43289769 67.83424492 -31 67 C-31 62.71 -31 58.42 -31 54 C10.58 53.505 10.58 53.505 53 53 C51.09238603 37.47234639 51.09238603 37.47234639 47 30 C46.71125 29.2575 46.4225 28.515 46.125 27.75 C44.50946419 25.2369443 42.81142209 24.9371407 40 24 C38.99710937 23.51917969 37.99421875 23.03835937 36.9609375 22.54296875 C32.38688686 20.56967294 27.72402913 19.99983035 22.8125 19.375 C21.42671753 19.18780396 21.42671753 19.18780396 20.01293945 18.99682617 C13.3500761 18.11704565 6.70677017 17.44711801 0 17 C0 11.39 0 5.78 0 0 Z M44 72 C43.97666971 86.19456042 43.9590866 100.38911787 43.94818783 114.5836935 C43.94295828 121.17404785 43.93585933 127.76438937 43.92456055 134.35473633 C43.91373422 140.70892018 43.90772371 147.06309165 43.90512276 153.41728401 C43.90326805 155.84749611 43.89964657 158.27770749 43.89426994 160.70791435 C43.88706289 164.09882981 43.88600892 167.48969341 43.88647461 170.88061523 C43.88287933 171.89625046 43.87928406 172.91188568 43.87557983 173.95829773 C43.8769545 174.87681519 43.87832916 175.79533264 43.87974548 176.74168396 C43.87882369 177.54456565 43.8779019 178.34744734 43.87695217 179.17465878 C43.80024617 181.01956179 43.80024617 181.01956179 45 182 C47.97 182 50.94 182 54 182 C54 145.37 54 108.74 54 71 C50.49064814 71 47.43515002 71.37542727 44 72 Z M105 77 C105 108.02 105 139.04 105 171 C118.2089012 162.19406587 126.97262805 153.25071173 130.63818359 137.29882812 C133.39264248 119.79816357 131.28290933 104.0800169 121.78125 89.1796875 C119.9672384 86.95991015 118.64218994 86.03138116 116 85 C116 84.34 116 83.68 116 83 C113.78679895 81.40414008 113.78679895 81.40414008 111.0625 79.875 C109.68771484 79.06675781 109.68771484 79.06675781 108.28515625 78.2421875 C106.28706199 76.92040184 106.28706199 76.92040184 105 77 Z M44 199 C43.95346384 209.35382041 43.91802334 219.70761555 43.89637566 230.06151962 C43.88598087 234.87031524 43.87190119 239.6790388 43.84912109 244.48779297 C43.82723807 249.13677927 43.81539908 253.78569666 43.81024551 258.43473053 C43.80657731 260.19995456 43.79941502 261.96517523 43.78853989 263.73036957 C43.43700702 282.62762966 43.43700702 282.62762966 50 300 C50.99 300.33 51.98 300.66 53 301 C53.91143172 298.26570484 54.12381595 296.69078671 54.12025452 293.8808136 C54.12162918 293.04368835 54.12300385 292.20656311 54.12442017 291.34407043 C54.11902725 289.97166451 54.11902725 289.97166451 54.11352539 288.5715332 C54.11367142 287.60549164 54.11381744 286.63945007 54.1139679 285.64413452 C54.11327041 282.44632737 54.10548562 279.24857824 54.09765625 276.05078125 C54.09579149 273.8354648 54.09436786 271.62014794 54.09336853 269.40483093 C54.08954793 263.57033146 54.07972151 257.73585683 54.06866455 251.90136719 C54.05844063 245.94922217 54.0538688 239.99707314 54.04882812 234.04492188 C54.03809886 222.36327033 54.02102789 210.68163723 54 199 C50.7 199 47.4 199 44 199 Z " fill="#3F4042" transform="translate(68,34)"/>
<path d="M0 0 C4.4066827 -0.1007862 8.81271055 -0.17234423 13.22021484 -0.21972656 C14.71154498 -0.23953005 16.20280094 -0.26658066 17.69384766 -0.30175781 C29.01305594 -0.5616181 42.24985255 -0.5000983 52 6 C52.25746897 8.67666717 52.31901919 11.11519334 52.2487793 13.78930664 C52.23481456 15.00582979 52.23481456 15.00582979 52.2205677 16.24692917 C52.18589341 18.96840467 52.12984571 21.68903456 52.07421875 24.41015625 C52.04598591 26.33979788 52.01921681 28.26946141 51.99382019 30.19914246 C51.93694212 34.33097423 51.87120277 38.4625324 51.79852295 42.59411621 C51.62811569 52.32788013 51.5045479 62.06229204 51.37591553 71.79668045 C51.3318421 75.09619171 51.28602631 78.39567551 51.23999023 81.69515991 C50.96933728 101.42384065 50.87019497 121.15038713 50.87527847 140.88077927 C50.87499984 143.25134719 50.87205006 145.62189744 50.86825562 147.99246216 C50.86252334 151.67785674 50.86187107 155.3632121 50.86586952 159.04860878 C50.86714836 161.01785427 50.8642057 162.9871011 50.86112976 164.9563446 C50.86582024 166.69353508 50.86582024 166.69353508 50.87060547 168.46582031 C50.87140106 169.46945618 50.87219666 170.47309204 50.87301636 171.50714111 C50.89525688 174.13169718 50.89525688 174.13169718 52 177 C52.07803597 178.71556491 52.0971062 180.43409671 52.08178711 182.15136719 C52.0752562 183.20386658 52.06872528 184.25636597 52.06199646 185.34075928 C52.05056107 186.48127747 52.03912567 187.62179565 52.02734375 188.796875 C52.0146806 191.2252589 52.00232093 193.65364441 51.99023438 196.08203125 C51.96558425 199.89962785 51.9377904 203.71714048 51.90405273 207.53466797 C50.40602921 234.64876995 50.40602921 234.64876995 60.375 258.875 C69.35737908 266.14644973 80.4900013 266.37743783 91.5625 267.125 C93.36170898 267.25455078 93.36170898 267.25455078 95.19726562 267.38671875 C98.13108863 267.59711243 101.06549202 267.79938636 104 268 C104 273.94 104 279.88 104 286 C51.86 286 -0.28 286 -54 286 C-54 280.06 -54 274.12 -54 268 C-52.26234375 267.89042969 -50.5246875 267.78085937 -48.734375 267.66796875 C-46.40621124 267.50837688 -44.07808831 267.3481887 -41.75 267.1875 C-40.61046875 267.11724609 -39.4709375 267.04699219 -38.296875 266.97460938 C-27.12131738 266.18089079 -15.62317092 265.24796769 -7.75 256.5 C-5.80002214 253.84429205 -5.80002214 253.84429205 -4 250 C-30.73 249.67 -57.46 249.34 -85 249 C-85 244.38 -85 239.76 -85 235 C-75.1 234.505 -75.1 234.505 -65 234 C-65 234.33 -65 234.66 -65 235 C-69.15626368 236.00926479 -73.04365094 236.10239579 -77.3125 236.0625 C-78.56675781 236.05347656 -79.82101563 236.04445313 -81.11328125 236.03515625 C-82.06589844 236.02355469 -83.01851562 236.01195312 -84 236 C-84 239.96 -84 243.92 -84 248 C-56.94 248 -29.88 248 -2 248 C-1.34 242.72 -0.68 237.44 0 232 C-0.66 232 -1.32 232 -2 232 C-1.83923477 231.37414505 -1.67846954 230.7482901 -1.51283264 230.10346985 C-0.80872106 225.84245192 -0.82201956 221.65681162 -0.79467773 217.34448242 C-0.78477814 216.3781488 -0.77487854 215.41181519 -0.76467896 214.41619873 C-0.73314848 211.22931347 -0.70833993 208.04241331 -0.68359375 204.85546875 C-0.66301693 202.64300657 -0.64202026 200.43054825 -0.62062073 198.21809387 C-0.5654753 192.40010717 -0.51603282 186.58208544 -0.46777344 180.76403809 C-0.41750343 174.82508228 -0.36184608 168.88617724 -0.30664062 162.94726562 C-0.19915114 151.29822047 -0.09768573 139.6491312 0 128 C-3.3 128 -6.6 128 -10 128 C-10 153.74 -10 179.48 -10 206 C-10.33 206 -10.66 206 -11 206 C-11 179.93 -11 153.86 -11 127 C-7.04 127 -3.08 127 1 127 C0.8934182 125.71724182 0.8934182 125.71724182 0.78468323 124.40856934 C-0.17615525 111.32512492 -0.12710292 98.26905358 -0.09765625 85.15625 C-0.09578732 82.69047067 -0.09436566 80.22469097 -0.09336853 77.75891113 C-0.08958075 71.32125798 -0.07978311 64.88362799 -0.06866455 58.44598389 C-0.05836933 51.85591953 -0.05385366 45.26585136 -0.04882812 38.67578125 C-0.03815688 25.78384438 -0.02132308 12.89192343 0 0 Z " fill="#EC292D" transform="translate(122,105)"/>
<path d="M0 0 C0.33 0 0.66 0 1 0 C1 5.94 1 11.88 1 18 C2.65 18 4.3 18 6 18 C4.68 18.33 3.36 18.66 2 19 C2 19.66 2 20.32 2 21 C2.58394531 21.268125 3.16789063 21.53625 3.76953125 21.8125 C17.07064937 28.89400597 26.32346324 44.12334136 35 56 C35.5264209 56.71752441 36.0528418 57.43504883 36.59521484 58.17431641 C43.27723165 67.29318439 49.76290207 76.52782777 56.1159668 85.87841797 C61.44133496 93.69495624 66.95319806 101.36810869 72.54248047 108.99755859 C73.88950905 110.84819987 75.21544195 112.71186479 76.53515625 114.58203125 C82.89225426 123.42526708 89.08092787 129.74139741 100 132 C105.6451589 132.85520544 111.31865377 133.44556323 117 134 C117 138.62 117 143.24 117 148 C108.25490036 148.22634949 99.5117593 148.40961122 90.76438808 148.51812172 C86.70208476 148.57021505 82.6418964 148.64079916 78.58081055 148.75439453 C74.65783671 148.86343401 70.73688981 148.92291528 66.81251717 148.94877243 C65.31916446 148.96718494 63.82591723 149.00314705 62.33343315 149.05730057 C50.72298134 149.46163923 50.72298134 149.46163923 46.71913147 146.06509399 C44.87269739 143.46754568 43.43908116 140.84135851 42 138 C40.91087235 136.32498326 39.80080291 134.66339599 38.67016602 133.01611328 C37.52996116 131.28513499 36.39125844 129.55316649 35.25390625 127.8203125 C34.63909897 126.88629608 34.02429169 125.95227966 33.39085388 124.98995972 C31.44670075 122.03587072 29.50451115 119.08049747 27.5625 116.125 C16.01020352 97.69606789 16.01020352 97.69606789 3.42016602 80.00830078 C0.14476471 75.37645428 -0.24640534 71.33434583 -0.22705078 65.73120117 C-0.22734283 65.01846039 -0.22763489 64.3057196 -0.22793579 63.57138062 C-0.22654857 61.22845044 -0.21101636 58.88584299 -0.1953125 56.54296875 C-0.1915802 54.91343866 -0.18873425 53.28390631 -0.18673706 51.65437317 C-0.17911767 47.37506871 -0.1594838 43.095901 -0.1373291 38.81665039 C-0.11683411 34.44614512 -0.10772754 30.07561765 -0.09765625 25.70507812 C-0.07623625 17.13665615 -0.04212085 8.56834511 0 0 Z " fill="#424445" transform="translate(172,206)"/>
<path d="M0 0 C52.14 0 104.28 0 158 0 C158.33 5.94 158.66 11.88 159 18 C157.453125 17.938125 155.90625 17.87625 154.3125 17.8125 C141.99328603 17.82714829 123.77919021 18.1089203 114.15234375 26.63671875 C108.86549501 32.39850899 107.6764881 38.11126553 106.9375 45.6875 C106.12185864 53.75628272 106.12185864 53.75628272 105 56 C106.485 56.495 106.485 56.495 108 57 C106.04900391 56.80083984 106.04900391 56.80083984 104.05859375 56.59765625 C90.68642174 55.30306147 77.37188455 54.64501242 63.94702148 54.34204102 C62.66770752 54.31037842 61.38839355 54.27871582 60.0703125 54.24609375 C58.92320801 54.22216553 57.77610352 54.1982373 56.59423828 54.17358398 C54 54 54 54 53 53 C52.3729527 49.51346593 51.80685319 46.02451018 51.28125 42.52148438 C50.51878582 37.84530775 49.3475173 34.18388163 47 30 C46.71125 29.2575 46.4225 28.515 46.125 27.75 C44.50946419 25.2369443 42.81142209 24.9371407 40 24 C38.49566406 23.27876953 38.49566406 23.27876953 36.9609375 22.54296875 C32.38688686 20.56967294 27.72402913 19.99983035 22.8125 19.375 C21.88864502 19.25020264 20.96479004 19.12540527 20.01293945 18.99682617 C13.3500761 18.11704565 6.70677017 17.44711801 0 17 C0 11.39 0 5.78 0 0 Z " fill="#EB2A2D" transform="translate(68,34)"/>
<path d="M0 0 C2.97 0.495 2.97 0.495 6 1 C5.67 32.68 5.34 64.36 5 97 C4.67 97 4.34 97 4 97 C3.22851412 91.5133701 2.84627487 86.19604023 2.82641602 80.65966797 C2.819729 79.86834473 2.81304199 79.07702148 2.80615234 78.26171875 C2.79219787 76.55832266 2.78027411 74.85490893 2.77020454 73.15148544 C2.753662 70.45233394 2.73042348 67.75331431 2.70530701 65.05422974 C2.63486956 57.385342 2.57433745 49.71640377 2.52319336 42.04736328 C2.49135851 37.34370606 2.45008483 32.64020791 2.40299797 27.93667984 C2.38702122 26.14979027 2.37467976 24.36286427 2.36609077 22.57592392 C2.35390092 20.0776327 2.32973962 17.57971465 2.30297852 15.08154297 C2.30238937 14.34892242 2.30180023 13.61630188 2.30119324 12.86148071 C2.2399791 8.53640037 1.54680338 5.03215398 0 1 C0 0.67 0 0.34 0 0 Z " fill="#F28886" transform="translate(168,109)"/>
<path d="M0 0 C0.66 0.99 1.32 1.98 2 3 C1.34 3 0.68 3 0 3 C-0.12375 3.928125 -0.2475 4.85625 -0.375 5.8125 C-1 9 -1 9 -3 12 C-3 12.66 -3 13.32 -3 14 C-3.66 14 -4.32 14 -5 14 C-5.33 14.66 -5.66 15.32 -6 16 C-6.66 16.33 -7.32 16.66 -8 17 C-8 16.34 -8 15.68 -8 15 C-8.886875 15.165 -9.77375 15.33 -10.6875 15.5 C-13.53596892 15.92995757 -16.13004802 16.08441035 -19 16 C-17.0287581 14.99901302 -15.06106424 14.02670802 -13.03515625 13.140625 C-6.70301086 10.2817554 -2.76908329 6.54510596 0 0 Z " fill="#F17B78" transform="translate(118,355)"/>
<path d="M0 0 C4 4 4 4 5.875 6.0625 C8.36987201 8.33723625 10.93924158 9.60874617 14 11 C10.30581799 12.231394 7.7943739 11.64432764 4 11 C3.67 11.66 3.34 12.32 3 13 C2.06576355 9.98968256 1.95550089 9.13349732 3 6 C2.34 6 1.68 6 1 6 C0.67 4.02 0.34 2.04 0 0 Z " fill="#F07F7A" transform="translate(177,358)"/>
<path d="M0 0 C0.66 0.33 1.32 0.66 2 1 C2.625 3.0625 2.625 3.0625 3 5 C1.35 6.32 -0.3 7.64 -2 9 C-2.33 7.68 -2.66 6.36 -3 5 C-3.66 5 -4.32 5 -5 5 C-4.67 4.34 -4.34 3.68 -4 3 C-3.34 3.33 -2.68 3.66 -2 4 C-2 3.01 -2 2.02 -2 1 C-1.34 0.67 -0.68 0.34 0 0 Z " fill="#E33034" transform="translate(125,332)"/>
<path d="M0 0 C2.475 0.99 2.475 0.99 5 2 C5 2.66 5 3.32 5 4 C5.66 4.33 6.32 4.66 7 5 C6.67 6.65 6.34 8.3 6 10 C3.05114309 7.05114309 1.3157194 3.9471582 0 0 Z " fill="#F29791" transform="translate(113,60)"/>
<path d="M0 0 C0.66 0 1.32 0 2 0 C1.67 0.66 1.34 1.32 1 2 C0.67 1.34 0.34 0.68 0 0 Z " fill="#FFFFFF" transform="translate(119,213)"/>
<path d="" fill="#FFFFFF" transform="translate(0,0)"/>
<path d="" fill="#FFFFFF" transform="translate(0,0)"/>
<path d="" fill="#FFFFFF" transform="translate(0,0)"/>
<path d="" fill="#FFFFFF" transform="translate(0,0)"/>
<path d="M0 0 C2 1 2 1 2 1 Z " fill="#FFFFFF" transform="translate(175,88)"/>
<path d="" fill="#FFFFFF" transform="translate(0,0)"/>
<path d="" fill="#FFFFFF" transform="translate(0,0)"/>
<path d="" fill="#FFFFFF" transform="translate(0,0)"/>
<path d="" fill="#FFFFFF" transform="translate(0,0)"/>
<path d="" fill="#FFFFFF" transform="translate(0,0)"/>
<path d="" fill="#FFFFFF" transform="translate(0,0)"/>
<path d="" fill="#FFFFFF" transform="translate(0,0)"/>
<path d="" fill="#FFFFFF" transform="translate(0,0)"/>
<path d="" fill="#FFFFFF" transform="translate(0,0)"/>
<path d="" fill="#FFFFFF" transform="translate(0,0)"/>
<path d="" fill="#FFFFFF" transform="translate(0,0)"/>
<path d="" fill="#FFFFFF" transform="translate(0,0)"/>
<path d="" fill="#FFFFFF" transform="translate(0,0)"/>
<path d="" fill="#FFFFFF" transform="translate(0,0)"/>
<path d="" fill="#FFFFFF" transform="translate(0,0)"/>
<path d="" fill="#FFFFFF" transform="translate(0,0)"/>
<path d="" fill="#FFFFFF" transform="translate(0,0)"/>
</svg>
